<?xml version="1.0" encoding="UTF-8" standalone="no"?>
<!-- Created with Inkscape (http://www.inkscape.org/) -->

<svg
   version="1.1"
   id="svg1"
   width="124.16"
   height="121.28"
   viewBox="0 0 124.16 121.28"
   sodipodi:docname="kingmakerCircleLogo.svg"
   inkscape:version="1.3 (0e150ed6c4, 2023-07-21)"
   xmlns:inkscape="http://www.inkscape.org/namespaces/inkscape"
   xmlns:sodipodi="http://sodipodi.sourceforge.net/DTD/sodipodi-0.dtd"
   xmlns="http://www.w3.org/2000/svg"
   xmlns:svg="http://www.w3.org/2000/svg">
  <defs
     id="defs1" />
  <sodipodi:namedview
     id="namedview1"
     pagecolor="#505050"
     bordercolor="#eeeeee"
     borderopacity="1"
     inkscape:showpageshadow="0"
     inkscape:pageopacity="0"
     inkscape:pagecheckerboard="0"
     inkscape:deskcolor="#505050"
     inkscape:zoom="9.6718339"
     inkscape:cx="62.087502"
     inkscape:cy="60.639999"
     inkscape:window-width="2560"
     inkscape:window-height="1369"
     inkscape:window-x="-8"
     inkscape:window-y="-8"
     inkscape:window-maximized="1"
     inkscape:current-layer="g1" />
  <g
     inkscape:groupmode="layer"
     inkscape:label="Image"
     id="g1">
    <path
       style="fill:#000000"
       d="M 57.440002,113.71282 C 41.822064,111.9023 28.955041,105.06163 19.738256,93.668907 11.513538,83.502463 7.371725,71.850923 7.371725,58.879999 c 0,-8.558945 1.6279933,-15.840377 5.267738,-23.560706 C 23.52197,12.236206 49.014151,-0.28529302 74.080002,5.1403288 90.505498,8.6957049 105.04422,20.351917 112.17195,35.68 c 7.73999,16.644716 6.5842,36.529558 -3.02172,51.987485 -7.78342,12.525145 -20.586001,21.715515 -34.590228,24.830695 -5.459298,1.21441 -12.694155,1.72771 -17.12,1.21464 z m 11.91739,-20.990154 7.12261,-7.117333 V 75.282666 64.959999 h -14.24 -14.240001 v 10.281162 10.281162 l 6.916233,7.158838 c 3.803928,3.937361 7.006754,7.158838 7.117391,7.158838 0.110636,0 3.406332,-3.2028 7.323767,-7.117333 z M 45.760001,91.040018 c 0,-0.08799 -1.8,-3.3802 -4,-7.316023 l -4,-7.156042 V 65.01773 53.467506 l 3.040172,-2.620758 c 2.590382,-2.23302 2.980967,-2.693859 2.64,-3.114857 C 40.787878,44.457056 30.898872,32.777083 30.718913,32.706723 30.420746,32.590146 20.41933,48.169544 20.361937,48.839982 c -0.02307,0.269439 1.110064,1.385608 2.518064,2.480377 l 2.56,1.990489 -0.153735,14.544575 c -0.08455,7.999517 -0.156554,15.692186 -0.16,17.094819 l -0.0063,2.550243 9.76,1.817197 c 9.980149,1.858186 10.88,2.000635 10.88,1.722336 z m 44.640002,-1.87783 8.96,-1.655862 -0.11912,-17.113163 -0.11912,-17.113164 2.329467,-1.76 c 1.28121,-0.968 2.53323,-1.909682 2.78226,-2.092627 0.36796,-0.270304 -0.48663,-1.799192 -4.561093,-8.16 -2.757637,-4.305055 -5.198871,-8.021051 -5.424966,-8.25777 -0.339541,-0.355496 -1.517583,0.888547 -6.769254,7.148503 -3.496996,4.168396 -6.393689,7.746075 -6.437095,7.950398 -0.04341,0.204323 1.213654,1.451497 2.793466,2.771496 l 2.872387,2.4 0.0065,11.765119 0.0065,11.765119 -3.629983,6.474881 c -1.99649,3.561185 -3.807133,6.8093 -4.023651,7.218035 -0.389748,0.735755 -0.379891,0.741022 0.989983,0.529026 0.761008,-0.117771 5.415651,-0.959266 10.343651,-1.869991 z M 60.800002,38.336 c 0,-12.444626 -0.120991,-22.010844 -0.276226,-21.84 -0.640892,0.705334 -13.483775,20.936143 -13.483775,21.240377 0,0.183479 1.584,2.498109 3.52,5.143623 l 3.520001,4.810024 v 6.394987 6.394988 h 3.36 3.36 z m 9.92,15.413073 0.16,-6.570927 3.455149,-4.698538 3.455148,-4.698538 -6.611985,-10.330535 c -3.636592,-5.681794 -6.811409,-10.541392 -7.055149,-10.799107 -0.377798,-0.399458 -0.443163,2.766803 -0.443163,21.466667 0,12.064381 0.10072,22.035958 0.223823,22.159061 0.123103,0.123103 1.671103,0.183103 3.44,0.133333 l 3.216177,-0.09049 z"
       id="path1" />
  </g>
</svg>
